<svg width="23" height="22" viewBox="0 0 23 22" fill="none" xmlns="http://www.w3.org/2000/svg">
<path d="M20.2487 6.81175C20.1644 6.6899 20.0519 6.59031 19.9207 6.5215C19.7896 6.45269 19.6437 6.41672 19.4956 6.41667H6.97402L5.91674 3.8775C5.77811 3.54312 5.54336 3.25746 5.24226 3.05673C4.94116 2.856 4.58727 2.74925 4.22545 2.75H2.08798V4.58334H4.22545L8.57185 15.0196C8.64147 15.1866 8.75892 15.3292 8.9094 15.4295C9.05988 15.5298 9.23667 15.5834 9.4175 15.5833H16.747C17.1291 15.5833 17.4708 15.3459 17.6055 14.9893L20.354 7.656C20.406 7.51724 20.4235 7.36794 20.4052 7.22091C20.3868 7.07387 20.3331 6.93348 20.2487 6.81175ZM16.1121 13.75H10.0286L7.73812 8.25H18.1735L16.1121 13.75Z" fill="white"/>
<path d="M9.87462 19.25C10.6336 19.25 11.2489 18.6344 11.2489 17.875C11.2489 17.1156 10.6336 16.5 9.87462 16.5C9.11562 16.5 8.50034 17.1156 8.50034 17.875C8.50034 18.6344 9.11562 19.25 9.87462 19.25Z" fill="white"/>
<path d="M16.2879 19.25C17.0469 19.25 17.6622 18.6344 17.6622 17.875C17.6622 17.1156 17.0469 16.5 16.2879 16.5C15.529 16.5 14.9137 17.1156 14.9137 17.875C14.9137 18.6344 15.529 19.25 16.2879 19.25Z" fill="white"/>
</svg>
