<svg width="23" height="22" viewBox="0 0 23 22" fill="none" xmlns="http://www.w3.org/2000/svg">
<path d="M19.4624 17.4167L14.7404 12.6922C15.6133 11.3648 15.963 9.76053 15.7216 8.18999C15.4802 6.61945 14.665 5.19437 13.4338 4.19068C12.2025 3.18698 10.6429 2.67606 9.05676 2.75684C7.47064 2.83762 5.97089 3.50434 4.84788 4.62794C3.72487 5.75153 3.05849 7.25206 2.97775 8.83901C2.89701 10.426 3.40767 11.9864 4.41084 13.2183C5.41402 14.4502 6.83835 15.2658 8.40807 15.5073C9.9778 15.7488 11.5813 15.399 12.908 14.5256L17.63 19.2501L19.4624 17.4167ZM4.80338 9.16675C4.80338 6.6395 6.85839 4.58341 9.38432 4.58341C11.9103 4.58341 13.9653 6.6395 13.9653 9.16675C13.9653 11.694 11.9103 13.7501 9.38432 13.7501C6.85839 13.7501 4.80338 11.694 4.80338 9.16675Z" fill="white"/>
</svg>
